<?xml version="1.0" standalone="no"?>
<!DOCTYPE svg PUBLIC "-//W3C//DTD SVG 20010904//EN"
 "http://www.w3.org/TR/2001/REC-SVG-20010904/DTD/svg10.dtd">
<svg version="1.0" xmlns="http://www.w3.org/2000/svg"
 width="570.000000pt" height="750.000000pt" viewBox="0 0 570.000000 750.000000"
 preserveAspectRatio="xMidYMid meet">

<g transform="translate(0.000000,750.000000) scale(0.100000,-0.100000)"
fill="#000000" stroke="none">
<path d="M1775 6867 c-50 -109 -66 -177 -66 -292 1 -169 37 -246 161 -338 124
-91 150 -116 150 -146 0 -16 -7 -34 -15 -41 -12 -10 -23 -6 -60 26 -25 22 -66
54 -91 72 -87 61 -159 41 -319 -91 -38 -31 -73 -57 -77 -57 -5 0 -48 25 -97
55 -50 31 -109 62 -133 71 -51 19 -207 46 -219 38 -5 -3 -19 -37 -30 -77 -20
-64 -21 -77 -10 -132 29 -146 111 -248 239 -299 39 -15 82 -36 95 -46 l24 -19
7 -663 c7 -695 15 -876 41 -980 48 -183 207 -351 429 -452 106 -49 153 -62
346 -96 201 -36 254 -51 258 -72 9 -47 -388 -258 -484 -258 -50 0 -108 39
-179 120 -38 44 -84 87 -103 96 -43 20 -103 12 -169 -22 -152 -81 -172 -181
-64 -337 44 -65 147 -161 205 -194 51 -28 52 -28 226 -27 160 1 183 3 265 28
50 15 125 42 168 60 l77 34 0 -25 c0 -14 -13 -79 -30 -146 -43 -179 -59 -285
-67 -447 l-8 -145 -60 -7 c-33 -4 -116 -11 -184 -16 -154 -11 -161 -16 -161
-127 0 -158 128 -765 184 -873 11 -22 27 -34 54 -41 66 -18 373 -60 507 -70
197 -14 506 1 690 34 198 36 217 43 227 80 29 109 118 792 118 910 0 86 -53
105 -340 125 -85 6 -163 13 -172 16 -9 3 -47 51 -83 107 -62 95 -66 105 -61
145 3 23 40 146 82 272 72 218 115 310 145 310 6 0 36 -7 67 -16 77 -22 132
-80 202 -213 61 -117 119 -183 196 -221 42 -21 62 -24 149 -24 78 1 110 5 145
21 72 32 84 53 89 146 6 147 -29 203 -149 232 -106 26 -127 44 -187 167 -76
155 -142 202 -358 253 -193 45 -225 56 -225 75 0 28 37 45 155 74 439 107 633
213 764 416 93 144 96 166 112 1065 l11 639 29 76 c34 86 75 233 84 301 10 69
-8 122 -58 164 -55 48 -240 170 -342 226 -74 41 -85 44 -155 44 -91 0 -113
-10 -237 -108 -50 -39 -106 -80 -123 -90 l-31 -18 -90 188 c-50 103 -111 230
-135 280 -77 161 -123 187 -334 188 -108 0 -119 -2 -180 -31 -36 -17 -94 -53
-130 -81 -36 -28 -80 -58 -97 -66 -31 -17 -32 -16 -58 15 -14 17 -37 53 -51
81 -36 70 -110 139 -193 181 -60 31 -85 37 -161 43 l-90 6 -35 -76z m230 -60
c127 -61 164 -108 184 -237 14 -84 1 -137 -35 -146 -33 -8 -70 27 -124 117
-37 63 -60 85 -74 72 -12 -12 -5 -48 30 -156 19 -60 34 -122 32 -136 -7 -61
-108 -24 -165 61 -49 72 -58 105 -58 213 1 156 42 245 114 245 15 0 58 -15 96
-33z m704 -151 c7 -8 16 -56 22 -107 14 -142 32 -141 59 4 17 90 38 117 95
117 23 0 48 -6 54 -13 13 -17 19 -106 26 -442 7 -268 13 -339 30 -337 14 2 22
68 35 272 14 231 20 282 34 277 13 -4 173 -352 193 -422 11 -37 13 -80 9 -167
-3 -65 -2 -118 3 -118 4 0 27 49 50 108 55 144 105 227 161 268 72 53 99 43
100 -38 0 -15 5 -39 11 -55 10 -26 11 -27 24 -10 7 10 21 61 31 114 18 103 26
113 98 113 31 0 115 -45 130 -69 4 -6 -2 -55 -13 -109 -43 -212 -70 -482 -57
-586 16 -122 47 -35 97 264 52 316 66 360 111 360 22 0 55 -15 80 -38 16 -13
16 -16 2 -26 -13 -10 -12 -19 15 -76 36 -76 40 -124 12 -140 -11 -5 -46 -10
-77 -10 l-58 0 33 -34 c32 -33 33 -35 38 -149 3 -63 -1 -263 -10 -443 -9 -181
-22 -464 -27 -629 -15 -397 -29 -505 -76 -570 -21 -29 -28 -12 -30 78 -2 125
-3 137 -13 137 -4 0 -27 -73 -49 -162 -56 -226 -74 -269 -129 -318 -51 -44
-88 -59 -106 -41 -6 6 -16 31 -22 54 -8 35 -14 42 -35 42 -24 0 -25 -3 -28
-65 -2 -48 -8 -70 -23 -86 -45 -48 -112 -26 -125 41 -10 54 -45 42 -59 -20
-12 -51 -32 -74 -72 -81 -45 -8 -63 11 -63 70 0 120 -31 155 -50 59 -18 -92
-30 -123 -55 -139 -31 -20 -211 -33 -462 -34 -207 0 -198 -2 -233 58 -11 17
-24 32 -29 32 -5 0 -18 -16 -30 -35 -20 -35 -21 -35 -88 -35 -80 0 -137 14
-163 40 -10 10 -21 41 -25 69 -4 28 -12 51 -17 51 -6 0 -28 -16 -49 -35 -65
-59 -113 -59 -178 0 -37 34 -59 77 -81 163 -13 49 -30 51 -44 4 -9 -32 -26
-44 -26 -18 0 7 -7 19 -16 26 -13 11 -16 10 -21 -8 -3 -12 -9 -22 -13 -22 -15
0 -67 70 -94 125 -59 122 -61 141 -61 715 0 480 2 531 19 595 22 83 36 113 77
159 17 20 25 37 19 41 -5 3 -35 1 -67 -4 -31 -6 -57 -11 -57 -11 -1 0 0 54 0
120 2 105 5 122 23 146 12 15 21 37 21 50 0 18 -6 23 -32 26 -56 5 -48 32 36
113 80 78 202 165 231 165 16 0 17 -7 12 -67 -3 -38 -19 -115 -36 -172 l-29
-105 29 -27 c16 -15 29 -36 29 -47 0 -11 7 -37 16 -58 15 -35 17 -37 29 -21
14 19 22 87 34 311 5 81 14 153 19 158 19 19 54 -4 146 -93 83 -81 110 -102
104 -81 -1 4 7 61 19 127 12 66 26 160 31 208 5 48 13 91 16 95 16 15 26 -29
26 -113 0 -99 17 -367 25 -402 3 -13 9 -23 14 -23 14 0 21 41 36 238 22 278
34 385 46 407 6 11 29 35 52 53 23 17 70 57 105 87 34 30 66 55 71 55 17 0 21
-33 31 -288 11 -271 16 -322 29 -322 10 0 16 63 36 361 16 253 28 328 52 347
21 15 28 15 42 -2z m-1541 -605 c138 -43 198 -93 172 -142 -16 -30 -34 -23
-101 36 -64 57 -73 62 -84 45 -6 -9 12 -43 93 -181 26 -44 22 -59 -15 -59 -61
0 -151 82 -172 157 -13 45 -24 151 -16 162 9 16 21 14 123 -18z m1576 -2721
c17 -17 21 -36 24 -120 3 -76 1 -100 -8 -100 -14 0 -96 67 -177 146 -32 30
-53 59 -53 72 0 19 6 21 63 25 91 6 128 0 151 -23z m243 3 c12 -43 9 -455 -4
-477 -10 -18 -13 -16 -41 23 -60 83 -112 271 -112 409 l0 72 75 0 c73 0 75 -1
82 -27z m-1361 -155 c38 -30 70 -67 117 -135 47 -70 49 -109 6 -158 -38 -43
-58 -46 -56 -7 2 22 -2 26 -18 24 -92 -16 -91 -16 -144 33 -98 92 -114 174
-45 234 44 39 97 42 140 9z m1576 -3 c22 -48 -46 -166 -72 -125 -13 21 -12 94
2 125 15 34 54 34 70 0z m-773 -14 c19 -12 10 -101 -14 -137 -16 -25 -21 -26
-69 -21 -56 6 -166 43 -166 57 0 4 42 28 93 53 78 39 105 49 137 56 3 0 11 -3
19 -8z m1031 -30 c60 -25 78 -42 48 -46 -7 -1 -38 -5 -68 -9 -30 -4 -81 -16
-113 -27 -33 -11 -62 -18 -64 -15 -12 12 11 87 33 111 22 23 30 26 62 20 20
-4 66 -19 102 -34z m-812 -46 c39 -41 108 -121 153 -177 142 -178 158 -213
124 -278 -21 -41 -40 -38 -72 13 -147 231 -217 327 -239 327 -26 0 -15 -33 52
-155 155 -286 204 -415 158 -415 -42 0 -221 112 -293 183 -82 80 -86 118 -37
322 19 77 39 166 46 198 7 34 17 57 24 57 8 0 45 -34 84 -75z m913 -91 c85
-27 125 -99 100 -177 -14 -40 -66 -117 -80 -117 -6 0 -32 40 -59 88 -28 49
-64 110 -81 137 -37 58 -38 73 -8 84 25 10 61 6 128 -15z m-1358 -42 c89 -28
88 -34 -10 -80 -191 -88 -245 -78 -213 40 17 61 34 71 104 64 34 -3 87 -14
119 -24z m-325 -77 c-6 -72 -20 -98 -52 -93 -17 2 -21 10 -20 35 2 33 51 123
68 123 5 0 6 -29 4 -65z m2003 -105 c29 -16 49 -64 49 -119 0 -74 -11 -81
-135 -81 -57 0 -110 3 -119 6 -21 8 -21 57 1 92 24 38 48 60 96 88 45 26 77
30 108 14z m-1320 -316 c68 -47 156 -111 194 -141 116 -92 233 -228 212 -249
-11 -11 -62 15 -123 62 -31 24 -60 42 -64 39 -5 -3 -6 -22 -3 -43 l5 -39 -77
-6 c-99 -9 -205 -9 -284 -1 l-62 7 3 31 c3 28 7 31 41 34 44 4 60 28 32 48
-34 25 -9 24 57 -3 71 -28 111 -26 87 3 -8 9 -52 43 -100 75 -48 32 -89 65
-93 74 -8 21 -8 143 0 173 11 38 46 26 175 -64z"/>
<path d="M3427 4829 c-123 -29 -207 -119 -239 -257 -24 -106 20 -247 101 -325
68 -66 102 -77 230 -77 95 0 122 3 157 20 91 45 173 169 182 276 12 152 -93
320 -225 360 -51 15 -147 17 -206 3z m91 -125 c13 -9 33 -36 43 -60 26 -57 13
-109 -36 -153 -31 -27 -43 -31 -94 -31 -55 0 -61 3 -95 38 -20 20 -39 47 -43
60 -14 56 39 151 92 165 32 9 107 -2 133 -19z"/>
<path d="M1789 4800 c-107 -19 -202 -90 -250 -187 -19 -40 -24 -64 -24 -138 0
-80 3 -97 30 -150 41 -82 129 -170 186 -185 72 -20 204 -8 265 23 98 50 144
104 170 200 19 72 17 124 -6 201 -19 60 -70 142 -109 174 -60 50 -176 77 -262
62z m61 -129 c14 -9 36 -38 48 -64 22 -43 23 -50 10 -89 -16 -51 -58 -83 -122
-92 -66 -10 -112 12 -136 66 -25 56 -25 93 2 136 41 66 135 86 198 43z"/>
<path d="M2505 4160 c-150 -11 -194 -20 -223 -45 -23 -20 -27 -31 -26 -72 2
-105 51 -199 139 -265 132 -100 296 -108 481 -23 88 40 145 91 178 158 22 42
26 65 26 131 0 45 -3 91 -6 104 l-6 22 -232 -1 c-127 -1 -276 -5 -331 -9z
m423 -271 c4 -20 -73 -70 -143 -94 -65 -22 -160 -31 -169 -16 -20 32 73 97
171 120 61 15 137 9 141 -10z"/>
</g>
</svg>
