<svg version="1.1" id="Layer_1" x="0px" y="0px" viewBox="0 0 668 88" xml:space="preserve" width="668" height="88" xmlns="http://www.w3.org/2000/svg">
<defs id="defs18" />
<style type="text/css" id="style1">
	.st0{fill:#222221;}
</style>

<g id="g18">
	<g id="g12" transform="translate(-63.247679,-271.23139)">
		<polygon class="st0" points="99.2,361 67,361 64.6,367.2 77.7,367.2 77.7,406.5 86.1,406.5 86.1,367.2 96.8,367.2 " id="polygon10" transform="translate(1.6028046,-65.247678)" />
		<polygon class="st0" points="145.3,361 134.9,361 136.9,364.4 136.9,379.7 118,379.7 118,361 107.6,361 109.6,364.4 109.6,406.5 118,406.5 118,386 136.9,386 136.9,406.5 145.3,406.5 " id="polygon11" transform="translate(1.6028046,-65.247678)" />
		<polygon class="st0" points="187.7,367.2 190.1,361 159.7,361 161.7,364.4 161.7,406.5 187.7,406.5 190.1,400.3 170.1,400.3 170.1,386 187.7,386 190.1,379.9 170.1,379.9 170.1,367.2 " id="polygon12" transform="translate(1.6028046,-65.247678)" />
	</g>
	<g id="g17" transform="translate(-63.247679,-271.23139)">
		<polygon points="725.3,343.2 707.9,343.2 711.2,348.9 711.2,419.3 725.3,419.3 " id="polygon13" transform="translate(3.6028046,-65.247678)" />
		<polygon points="513.5,419.3 526,419.3 526,343.2 511.6,343.2 514.9,349 514.9,396.7 475.4,343.2 459.1,343.2 463.1,348.9 463.1,419.3 474.3,419.3 474.3,363.8 " id="polygon14" transform="translate(1.6028046,-65.247678)" />
		<path d="m 441.1028,342.15232 v -64.3 h -17.4 l 3.3,5.7 v 57.7 c -4.2,2.3 -7.3,3.6 -12.2,3.6 -9.9,0 -17.7,-8.3 -17.7,-18.1 v -48.9 h -17.4 l 3.3,5.7 v 47.2 c 0,14.2 11.6,24.7 25.5,24.7 10.4,0 16.6,-3.4 25.2,-8.6 2.6,-1.3 5.1,-2.9 7.4,-4.7" id="path14" />
		<polygon points="325.3,419.3 339.4,419.3 339.4,388.5 366.8,343.2 348.3,343.2 350.5,348.9 334.1,376.4 314.4,343.2 297.7,343.2 325.3,389 " id="polygon15" transform="translate(1.6028046,-65.247678)" />
		<polygon points="269.2,419.3 283.2,419.3 283.2,343.2 265.9,343.2 269.2,348.9 269.2,374.5 237.6,374.5 237.6,343.2 220.2,343.2 223.5,348.9 223.5,419.3 237.6,419.3 237.6,385.1 269.2,385.1 " id="polygon16" transform="translate(1.6028046,-65.247678)" />
		<path d="m 579.6028,277.95232 h -31.6 l 3.3,5.7 v 70.3 h 22.7 c 6.7,0 13.1,-1.6 18.8,-4.9 2.1,-1.2 4.2,-2.4 6.2,-3.7 11.1,-6.7 18,-19.1 18,-32.3 0.1,-20.9 -18.5,-35.1 -37.4,-35.1 m 11.5,63.3 c -3.5,2.2 -7.5,2.4 -11.6,2.4 h -14.2 v -55.4 h 7.9 c 16.4,0 29.5,12.1 29.5,28.6 0,8.9 -3.8,19.6 -11.6,24.4" id="path16" />
		<path d="m 665.0028,277.95232 h -15.2 l 2.5,5.7 -31,70.3 h 16.5 l -2.2,-5.7 6.7,-15.2 h 31.6 l 9.3,20.9 h 15.3 z m -18.1,44.9 11.3,-25.7 11.3,25.7 z" id="path17" />
	</g>
</g>
</svg>