<svg xmlns="http://www.w3.org/2000/svg" width="298pt" height="94pt" viewBox="0 0 298 94"><path d="M298 92.969V47.605h-10l1.938 3.407v41.957ZM181.367 92.969V47.605h-8.336a21.596 21.596 0 0 1 1.875 3.844v28.047l-22.394-31.89h-9.938l2.707 3.988v41.375h6.395V60.992l22.523 31.977ZM130.531 85.906v-38.32h-10.043l2.082 3.426v34.414a12.944 12.944 0 0 1-7.02 2.09 10.396 10.396 0 0 1-7.288-3.27 10.44 10.44 0 0 1-2.836-7.484V47.523H95.422l1.918 3.422v28.239a14.51 14.51 0 0 0 4.234 10.375 14.448 14.448 0 0 0 10.352 4.242c5.976 0 9.52-2.086 14.582-5.074a34.254 34.254 0 0 0 4.168-2.883M86.383 47.605H75.859l1.188 3.407-9.438 16.433-11.293-19.84h-9.625L62.586 74.88v18.09h8.086v-18.34ZM36.23 92.969V47.605h-9.98l1.898 3.407v15.265H9.98V47.605H0l1.895 3.407v41.957H9.98V72.605h18.168V92.97ZM212.035 47.586H193.45l1.899 3.426v41.957h13a20.776 20.776 0 0 0 10.875-3.031c1.187-.645 2.355-1.418 3.586-2.086a21.814 21.814 0 0 0 10.418-18.797 21.339 21.339 0 0 0-6.07-15.196 21.21 21.21 0 0 0-15.04-6.379m6.254 37.782a11.914 11.914 0 0 1-6.648 1.441h-8.125V53.766h4.543a17.129 17.129 0 0 1 12.113 5.293 17.215 17.215 0 0 1 4.762 12.355 16.716 16.716 0 0 1-6.707 13.95M261.684 47.605h-8.75l1.46 3.407-17.835 41.957h9.5l-1.25-3.426 3.832-9.066h18.168l5.316 12.53h8.79Zm-10.418 26.797 6.523-15.308 6.5 15.308ZM118.133.137l-1.106 2.879h5.668v18.402h3.836V3.016h4.563l1.082-2.88ZM149.426.137l.918 1.566v7.184H141.8V.137h-4.668l.855 1.566v19.715h3.813v-9.566h8.543v9.566h3.77V.137ZM159.656.137l.899 1.566v19.715h11.687l1.063-2.906h-8.938v-6.66h7.875l1.063-2.903h-8.938V3.016h7.875l1.063-2.88Zm0 0" style="stroke:none;fill-rule:nonzero;fill:#231815;fill-opacity:1"/></svg>